:FULLY-SPECIFIED
:FORCE-ALL-JOINTS-BE-3DOF
:DEGREES
679
root 5.36641 16.0845 0.918854 15.7002 -23.2566 -0.0134764
lfemur -37.2553 26.8019 -10.1335
ltibia 106.959 0 0
lfoot 21.8633 -20.6959 0
ltoes 12.2691 0 0
rfemur -38.5981 -11.3913 26.2748
rtibia 61.7747 0 0
rfoot -24.4303 -6.26661 0
rtoes 0.0389592 0 0
lowerback 0.981129 -6.69322 0.0807468
upperback -1.8834 -8.91766 0.954764
thorax -2.3414 -4.45007 1.19237
lowerneck -9.45484 -3.61678 0.701242
upperneck 2.46607 -5.02307 2.09716
head 2.45592 -2.42674 0.298239
lclavicle 1.26994e-13 1.87228e-14 0
lhumerus 15.2238 -62.0628 54.0152
lradius 92.1678 0 0
lwrist 29.7868 0 0
lhand -14.4445 -1.23554 0
lfingers 7.12502 0 0
lthumb 11.7005 28.4183 0
rclavicle 1.26994e-13 1.87228e-14 0
rhumerus -45.999 -9.25571 -44.3557
rradius 77.6498 0 0
rwrist -21.856 0 0
rhand -26.8689 -47.7669 0
rfingers 7.12502 0 0
rthumb -0.293422 -797.746 0
680
root 5.35757 16.1485 1.05149 15.4457 -24.6551 -0.0188455
lfemur -38.6408 26.5214 -7.68396
ltibia 110.835 0 0
lfoot 23.3716 -22.1735 0
ltoes 13.8335 0 0
rfemur -37.0493 -10.5986 25.6188
rtibia 60.2502 0 0
rfoot -24.182 -5.83958 0
rtoes 0.136471 0 0
lowerback 1.2829 -6.68443 0.0475016
upperback -1.8514 -8.91007 0.842014
thorax -2.48965 -4.4449 1.13259
lowerneck -9.24205 -3.56945 0.702065
upperneck 2.62229 -4.96469 2.15003
head 2.47081 -2.39551 0.320897
lclavicle 1.30303e-13 2.06736e-14 0
lhumerus 18.1137 -60.1086 49.3292
lradius 92.6218 0 0
lwrist 30.0796 0 0
lhand -14.8207 -1.41853 0
lfingers 7.12502 0 0
lthumb 11.3377 28.255 0
rclavicle 1.30303e-13 2.06736e-14 0
rhumerus -45.2935 -8.74488 -42.9472
rradius 79.7625 0 0
rwrist -21.6464 0 0
rhand -26.8969 -47.4337 0
rfingers 7.12502 0 0
rthumb -0.320506 -797.413 0
681
root 5.34689 16.2223 1.18541 15.1841 -25.9836 0.0232912
lfemur -39.9673 26.2681 -4.87659
ltibia 114.45 0 0
lfoot 24.1615 -22.9325 0
ltoes 15.0681 0 0
rfemur -35.4462 -9.92605 24.9356
rtibia 58.5859 0 0
rfoot -23.9709 -5.24145 0
rtoes 0.653211 0 0
lowerback 1.55335 -6.66655 -0.032917
upperback -1.82095 -8.89396 0.689595
thorax -2.62145 -4.43483 1.05381
lowerneck -8.98045 -3.56778 0.672471
upperneck 2.78828 -4.96749 2.26928
head 2.48332 -2.39325 0.367709
lclavicle 1.21514e-13 2.07849e-14 0
lhumerus 20.8111 -57.9217 44.8363
lradius 92.7989 0 0
lwrist 30.3927 0 0
lhand -15.1942 -1.59629 0
lfingers 7.12502 0 0
lthumb 10.9775 28.0974 0
rclavicle 1.21514e-13 2.07849e-14 0
rhumerus -44.7289 -8.29929 -41.3066
rradius 81.9811 0 0
rwrist -21.1396 0 0
rhand -26.9756 -46.9532 0
rfingers 7.12502 0 0
rthumb -0.39654 -796.933 0
682
root 5.3343 16.3031 1.31908 14.9005 -27.248 0.110506
lfemur -41.2604 26.0466 -1.67112
ltibia 117.952 0 0
lfoot 24.2676 -23.1248 0
ltoes 16.0424 0 0
rfemur -33.8086 -9.37534 24.2412
rtibia 56.8582 0 0
rfoot -23.8679 -4.51041 0
rtoes 1.5466 0 0
lowerback 1.82112 -6.64532 -0.174978
upperback -1.78661 -8.87624 0.496664
thorax -2.7455 -4.4231 0.966793
lowerneck -8.66478 -3.60442 0.613185
upperneck 2.96682 -5.02128 2.45325
head 2.49341 -2.41489 0.438559
lclavicle 1.02536e-13 1.93001e-14 0
lhumerus 23.4255 -55.47 40.3665
lradius 92.7699 0 0
lwrist 30.7394 0 0
lhand -15.5366 -1.75524 0
lfingers 7.12502 0 0
lthumb 10.6473 27.9567 0
rclavicle 1.02536e-13 1.93001e-14 0
rhumerus -44.2673 -7.86144 -39.4768
rradius 84.3836 0 0
rwrist -20.3589 0 0
rhand -27.08 -46.3236 0
rfingers 7.12502 0 0
rthumb -0.497384 -796.305 0
683
root 5.3208 16.3931 1.45401 14.6076 -28.4913 0.234634
lfemur -42.4978 25.8176 1.75547
ltibia 121.248 0 0
lfoot 23.839 -22.8408 0
ltoes 16.8525 0 0
rfemur -32.1198 -8.9006 23.5289
rtibia 54.9716 0 0
rfoot -23.7113 -3.69299 0
rtoes 2.65898 0 0
lowerback 2.07838 -6.61365 -0.361506
upperback -1.75127 -8.84689 0.273172
thorax -2.86117 -4.40505 0.870912
lowerneck -8.3176 -3.66994 0.533756
upperneck 3.15029 -5.11383 2.68457
head 2.5019 -2.45476 0.526586
lclavicle 7.69555e-14 1.68138e-14 0
lhumerus 25.8919 -52.8413 36.018
lradius 92.5542 0 0
lwrist 31.0895 0 0
lhand -15.8656 -1.91187 0
lfingers 7.12502 0 0
lthumb 10.3299 27.8169 0
rclavicle 7.69555e-14 1.68138e-14 0
rhumerus -43.8695 -7.45397 -37.5112
rradius 86.864 0 0
rwrist -19.3901 0 0
rhand -27.225 -45.6019 0
rfingers 7.12502 0 0
rthumb -0.637455 -795.584 0
684
root 5.30738 16.4945 1.59171 14.318 -29.7564 0.387515
lfemur -43.6576 25.5415 5.22621
ltibia 124.244 0 0
lfoot 23.0249 -22.1709 0
ltoes 17.5945 0 0
rfemur -30.3635 -8.45592 22.792
rtibia 52.8307 0 0
rfoot -23.3396 -2.8357 0
rtoes 3.8327 0 0
lowerback 2.31732 -6.56447 -0.575326
upperback -1.71777 -8.79587 0.0290712
thorax -2.96783 -4.37605 0.765529
lowerneck -7.96144 -3.75489 0.44373
upperneck 3.33105 -5.23288 2.94588
head 2.5096 -2.50719 0.624932
lclavicle 4.83575e-14 1.39207e-14 0
lhumerus 28.1455 -50.1238 31.889
lradius 92.1711 0 0
lwrist 31.4128 0 0
lhand -16.1992 -2.08266 0
lfingers 7.12502 0 0
lthumb 10.008 27.6623 0
rclavicle 4.83575e-14 1.39207e-14 0
rhumerus -43.496 -7.09954 -35.4633
rradius 89.3163 0 0
rwrist -18.3187 0 0
rhand -27.4255 -44.8451 0
rfingers 7.12502 0 0
rthumb -0.831168 -794.828 0
685
root 5.29505 16.6097 1.73366 14.0445 -31.0861 0.560984
lfemur -44.7177 25.1788 8.56413
ltibia 126.847 0 0
lfoot 21.9747 -21.2055 0
ltoes 18.3645 0 0
rfemur -28.5232 -7.99541 22.0238
rtibia 50.3401 0 0
rfoot -22.5908 -1.98507 0
rtoes 4.91011 0 0
lowerback 2.53011 -6.49066 -0.799262
upperback -1.68899 -8.71316 -0.225686
thorax -3.06484 -4.33144 0.650007
lowerneck -7.61887 -3.84984 0.352656
upperneck 3.50145 -5.36622 3.21981
head 2.51734 -2.56651 0.726739
lclavicle 2.03284e-14 1.12154e-14 0
lhumerus 30.1214 -47.4054 28.0777
lradius 91.64 0 0
lwrist 31.6789 0 0
lhand -16.5552 -2.28411 0
lfingers 7.12502 0 0
lthumb 9.66463 27.4768 0
rclavicle 2.03284e-14 1.12154e-14 0
rhumerus -43.1076 -6.82079 -33.3864
rradius 91.6345 0 0
rwrist -17.2306 0 0
rhand -27.6965 -44.1103 0
rfingers 7.12502 0 0
rthumb -1.09294 -794.092 0
686
root 5.28482 16.7409 1.88138 13.7995 -32.5233 0.746879
lfemur -45.6559 24.6901 11.5922
ltibia 128.963 0 0
lfoot 20.8375 -20.0348 0
ltoes 19.2584 0 0
rfemur -26.5825 -7.47319 21.2175
rtibia 47.4044 0 0
rfoot -21.3035 -1.1876 0
rtoes 5.73356 0 0
lowerback 2.70895 -6.38516 -1.01614
upperback -1.6678 -8.58874 -0.481149
thorax -3.15158 -4.26657 0.523711
lowerneck -7.31243 -3.94536 0.270082
upperneck 3.65388 -5.5016 3.48901
head 2.52593 -2.62705 0.825147
lclavicle -3.54601e-15 9.29246e-15 0
lhumerus 31.7547 -44.774 24.6824
lradius 90.9804 0 0
lwrist 31.8576 0 0
lhand -16.9512 -2.5327 0
lfingers 7.12502 0 0
lthumb 9.28242 27.2446 0
rclavicle -3.54601e-15 9.29246e-15 0
rhumerus -42.6648 -6.64036 -31.3341
rradius 93.7126 0 0
rwrist -16.2113 0 0
rhand -28.053 -43.4542 0
rfingers 7.12502 0 0
rthumb -1.43718 -793.433 0
